<svg width="17" height="24" viewBox="0 0 17 24" fill="none" xmlns="http://www.w3.org/2000/svg">
<path id="Vector" d="M16.4732 0.665875C16.4732 0.491338 16.3976 0.32395 16.2629 0.200533C16.1282 0.0771171 15.9456 0.00778237 15.7551 0.00778237H12.1643C10.3562 -0.0747545 8.58589 0.501867 7.24024 1.61166C5.8946 2.72145 5.08299 4.27419 4.98276 5.93062V9.48432H1.39198C1.20152 9.48432 1.01885 9.55365 0.884171 9.67707C0.749491 9.80049 0.673828 9.96787 0.673828 10.1424V13.5645C0.673828 13.739 0.749491 13.9064 0.884171 14.0298C1.01885 14.1533 1.20152 14.2226 1.39198 14.2226H4.98276V23.041C4.98276 23.2156 5.05842 23.383 5.1931 23.5064C5.32778 23.6298 5.51045 23.6991 5.70092 23.6991H10.0098C10.2003 23.6991 10.383 23.6298 10.5177 23.5064C10.6523 23.383 10.728 23.2156 10.728 23.041V14.2226H14.4911C14.6508 14.2247 14.8068 14.1779 14.9342 14.0897C15.0617 14.0015 15.1534 13.8769 15.1949 13.7356L16.2291 10.3135C16.2576 10.2163 16.2615 10.1143 16.2403 10.0155C16.2191 9.91671 16.1735 9.82367 16.1069 9.74357C16.0403 9.66347 15.9545 9.59844 15.8562 9.5535C15.7578 9.50855 15.6495 9.48488 15.5396 9.48432H10.728V5.93062C10.7637 5.60483 10.9307 5.30294 11.1963 5.08391C11.4619 4.86487 11.807 4.74441 12.1643 4.74605H15.7551C15.9456 4.74605 16.1282 4.67672 16.2629 4.5533C16.3976 4.42988 16.4732 4.2625 16.4732 4.08796V0.665875Z" fill="white"/>
</svg>
