<svg width="23" height="24" viewBox="0 0 23 24" fill="none" xmlns="http://www.w3.org/2000/svg">
<g id="Group 214">
<path id="Vector" d="M11.4494 8.04013C9.26191 8.04013 7.48131 9.82084 7.48131 12.0085C7.48131 14.1961 9.26191 15.9769 11.4494 15.9769C13.6369 15.9769 15.4175 14.1961 15.4175 12.0085C15.4175 9.82084 13.6384 8.04013 11.4494 8.04013ZM11.4494 8.04013C9.26191 8.04013 7.48131 9.82084 7.48131 12.0085C7.48131 14.1961 9.26191 15.9769 11.4494 15.9769C13.6369 15.9769 15.4175 14.1961 15.4175 12.0085C15.4175 9.82084 13.6384 8.04013 11.4494 8.04013ZM22.2008 1.13374C21.8993 0.830701 21.4895 0.661865 21.0609 0.661865H1.71529C1.28818 0.661865 0.878379 0.830701 0.57536 1.13374C0.273784 1.43534 0.103516 1.84516 0.103516 2.27374V21.6206C0.103516 22.0477 0.273784 22.459 0.57536 22.7606C0.878379 23.0636 1.28818 23.2325 1.71529 23.2325H21.0609C21.4895 23.2325 21.8993 23.0636 22.2008 22.7606C22.5038 22.459 22.6741 22.0477 22.6741 21.6206V2.27374C22.6741 1.84516 22.5038 1.43534 22.2008 1.13374ZM11.4494 19.1515C7.51161 19.1515 4.30682 15.948 4.30682 12.0085C4.30682 8.06899 7.51161 4.86544 11.4494 4.86544C15.3872 4.86544 18.592 8.07044 18.592 12.0085C18.592 15.9466 15.3887 19.1515 11.4494 19.1515ZM19.1692 6.30848C18.1332 6.30848 17.2934 5.46863 17.2934 4.43253C17.2934 3.39643 18.1332 2.55658 19.1692 2.55658C20.2052 2.55658 21.045 3.39643 21.045 4.43253C21.045 5.46863 20.2052 6.30848 19.1692 6.30848ZM11.4494 8.04013C9.26191 8.04013 7.48131 9.82084 7.48131 12.0085C7.48131 14.1961 9.26191 15.9769 11.4494 15.9769C13.6369 15.9769 15.4175 14.1961 15.4175 12.0085C15.4175 9.82084 13.6384 8.04013 11.4494 8.04013Z" fill="white"/>
</g>
</svg>
