<svg width="24" height="24" viewBox="0 0 24 24" fill="none" xmlns="http://www.w3.org/2000/svg">
<g id="Group">
<path id="Vector" d="M16.4983 6.92167C15.5154 6.9183 14.5414 7.10868 13.6322 7.4819C12.723 7.85512 11.8963 8.40387 11.1995 9.09675C10.5027 9.78963 9.94943 10.613 9.57134 11.5198C9.19325 12.4267 8.99777 13.3991 8.99609 14.3815V21.9182C8.99609 22.2242 9.11769 22.5176 9.33415 22.7339C9.5506 22.9503 9.84417 23.0718 10.1503 23.0718H12.8434C13.1495 23.0718 13.443 22.9503 13.6595 22.7339C13.8759 22.5176 13.9975 22.2242 13.9975 21.9182V14.3815C13.9973 14.0321 14.0707 13.6866 14.213 13.3674C14.3553 13.0483 14.5634 12.7627 14.8235 12.5293C15.0837 12.2959 15.3901 12.1199 15.7229 12.0128C16.0556 11.9057 16.4072 11.8699 16.7548 11.9077C17.378 11.9862 17.9508 12.2905 18.3645 12.763C18.7781 13.2355 19.0039 13.8434 18.999 14.4712V21.9182C18.999 22.2242 19.1206 22.5176 19.337 22.7339C19.5535 22.9503 19.8471 23.0718 20.1532 23.0718H22.8463C23.1524 23.0718 23.4459 22.9503 23.6624 22.7339C23.8788 22.5176 24.0004 22.2242 24.0004 21.9182V14.3815C23.9988 13.3991 23.8033 12.4267 23.4252 11.5198C23.0471 10.613 22.4938 9.78963 21.797 9.09675C21.1002 8.40387 20.2735 7.85512 19.3643 7.4819C18.4551 7.10868 17.4812 6.9183 16.4983 6.92167Z" fill="white"/>
<path id="Vector_2" d="M5.53274 8.07471H2.0702C1.43276 8.07471 0.916016 8.59118 0.916016 9.22829V21.9177C0.916016 22.5548 1.43276 23.0712 2.0702 23.0712H5.53274C6.17017 23.0712 6.68692 22.5548 6.68692 21.9177V9.22829C6.68692 8.59118 6.17017 8.07471 5.53274 8.07471Z" fill="white"/>
<path id="Vector_3" d="M3.80147 5.7679C5.39506 5.7679 6.68692 4.47671 6.68692 2.88395C6.68692 1.29119 5.39506 0 3.80147 0C2.20788 0 0.916016 1.29119 0.916016 2.88395C0.916016 4.47671 2.20788 5.7679 3.80147 5.7679Z" fill="white"/>
</g>
</svg>
