<svg width="42" height="42" viewBox="0 0 42 42" fill="none" xmlns="http://www.w3.org/2000/svg">
<path d="M22.409 13.8118L25.1393 37.7199L20.556 41.8931L15.968 37.7228L18.6834 13.794C19.3318 13.8632 19.9835 13.8982 20.6356 13.8989C21.2339 13.8998 21.8257 13.868 22.409 13.8118ZM17.748 12.1639C19.5867 12.4667 21.4626 12.4667 23.3013 12.1639L24.8472 8H16.1974L17.748 12.1639Z" fill="#66023C"/>
<path d="M28.4817 18.6554C28.4817 18.2548 28.6408 17.8707 28.924 17.5874C29.2073 17.3042 29.5914 17.1451 29.992 17.1451C30.3925 17.1451 30.7767 17.3042 31.0599 17.5874C31.3431 17.8707 31.5022 18.2548 31.5022 18.6554V36.8781H30.7045L28.4817 18.6554ZM12.625 18.6554C12.625 18.2548 12.4659 17.8707 12.1826 17.5874C11.8994 17.3042 11.5152 17.1451 11.1147 17.1451C10.7141 17.1451 10.33 17.3042 10.0467 17.5874C9.76351 17.8707 9.60439 18.2548 9.60439 18.6554V36.8781H10.4012L12.625 18.6554ZM40.8496 6.20223C40.2357 4.1223 38.8336 2.36442 36.9423 1.30336C35.6711 0.553724 34.2395 0.117836 32.7663 0.0318319C32.6052 0.0224686 32.182 0.000936326 32.1165 0H9.01638C8.95084 0 8.52856 0.0224686 8.36752 0.0318319C6.89425 0.117836 5.46268 0.553724 4.19148 1.30336C2.30014 2.36442 0.898105 4.1223 0.284217 6.20223C0.00655043 7.216 -0.0686424 8.27454 0.0629371 9.31737C0.194517 10.3602 0.53029 11.3669 1.05107 12.2799C1.57046 13.205 2.29474 13.9988 3.1684 14.6006C4.04206 15.2024 5.04191 15.5962 6.09131 15.7518C7.08606 15.8851 8.09817 15.7861 9.04821 15.4624C9.99826 15.1388 10.8604 14.5995 11.5669 13.8867C12.232 13.21 12.7088 12.3715 12.9504 11.454C13.192 10.5365 13.1899 9.57182 12.9443 8.6554C12.7263 7.76288 12.2595 6.95054 11.5982 6.31276C10.9369 5.67497 10.1081 5.23794 9.20832 5.05243C8.36639 4.89154 7.49527 4.99664 6.71577 5.35317C5.93628 5.7097 5.28705 6.29998 4.85815 7.04212C4.59918 7.50498 4.46094 8.02559 4.45619 8.55595C4.45145 9.08631 4.58035 9.60933 4.831 10.0767C5.06411 10.5174 5.41751 10.8829 5.85011 11.1307C6.28271 11.3785 6.77674 11.4984 7.2748 11.4766C7.80945 11.4379 8.31143 11.2047 8.68586 10.8211C8.78816 10.7112 8.87624 10.5888 8.94803 10.4569C8.99859 10.3633 9.02855 10.3427 8.93866 10.2865C8.83379 10.2209 8.77014 10.1451 8.6662 10.2228C8.54261 10.3164 8.42649 10.4222 8.29634 10.5037C8.0762 10.629 7.82772 10.6961 7.57443 10.6985C7.33222 10.7028 7.09191 10.6548 6.8699 10.5579C6.64789 10.4609 6.44939 10.3173 6.28793 10.1367C6.09317 9.90742 5.95781 9.63377 5.8938 9.33984C5.82979 9.04592 5.83911 8.74076 5.92089 8.45128C6.09521 7.92735 6.45301 7.48409 6.92837 7.20317C7.46766 6.88453 8.10723 6.78089 8.71955 6.91291C9.23807 7.03592 9.71288 7.2989 10.0922 7.6732C10.4141 8.01662 10.6628 8.42181 10.8235 8.86421C10.9955 9.35507 11.0477 9.87991 10.9759 10.395C10.9041 10.9102 10.7102 11.4007 10.4106 11.8258C9.76944 12.6822 8.82324 13.2589 7.76825 13.4363C6.66431 13.629 5.52887 13.3805 4.6063 12.7443C3.76554 12.142 3.12075 11.3054 2.75236 10.3389C2.39205 9.39008 2.28847 8.36296 2.45204 7.36128C2.61562 6.3596 3.04056 5.41881 3.684 4.63388C4.71134 3.4365 6.10067 2.60626 7.64184 2.26872C8.26862 2.12791 8.90958 2.06004 9.55195 2.06647H31.5865C32.2289 2.06004 32.8698 2.12791 33.4966 2.26872C35.0378 2.60632 36.4271 3.43656 37.4545 4.63388C38.0979 5.41881 38.5229 6.3596 38.6864 7.36128C38.85 8.36296 38.7464 9.39008 38.3861 10.3389C38.018 11.3052 37.3735 12.1418 36.5331 12.7443C35.6106 13.3805 34.4751 13.629 33.3711 13.4363C32.3162 13.2589 31.37 12.6822 30.7288 11.8258C30.4292 11.4007 30.2354 10.9102 30.1635 10.395C30.0917 9.87991 30.1439 9.35507 30.3159 8.86421C30.4766 8.42182 30.7254 8.01664 31.0472 7.6732C31.4265 7.2989 31.9013 7.03592 32.4198 6.91291C33.0322 6.78089 33.6717 6.88453 34.211 7.20317C34.686 7.48426 35.0435 7.9275 35.2176 8.45128C35.2994 8.74076 35.3087 9.04592 35.2447 9.33984C35.1806 9.63377 35.0453 9.90742 34.8506 10.1367C34.6891 10.3173 34.4906 10.4609 34.2686 10.5579C34.0466 10.6548 33.8063 10.7028 33.5641 10.6985C33.3104 10.6962 33.0616 10.6292 32.8412 10.5037C32.7111 10.4194 32.5959 10.3164 32.4713 10.2228C32.3674 10.1451 32.3038 10.2228 32.1989 10.2865C32.1053 10.3427 32.139 10.3633 32.1895 10.4569C32.2613 10.5888 32.3494 10.7112 32.4517 10.8211C32.8261 11.2048 33.3281 11.438 33.8627 11.4766C34.3608 11.4984 34.8548 11.3785 35.2874 11.1307C35.72 10.8829 36.0734 10.5174 36.3065 10.0767C36.5572 9.60933 36.6861 9.08631 36.6814 8.55595C36.6766 8.02559 36.5384 7.50498 36.2794 7.04212C35.8505 6.29998 35.2013 5.7097 34.4218 5.35317C33.6423 4.99664 32.7712 4.89154 31.9292 5.05243C31.0294 5.23794 30.2007 5.67497 29.5393 6.31276C28.878 6.95054 28.4112 7.76288 28.1933 8.6554C27.9477 9.57182 27.9456 10.5365 28.1871 11.454C28.4287 12.3715 28.9056 13.21 29.5706 13.8867C30.2772 14.5995 31.1393 15.1388 32.0893 15.4624C33.0394 15.7861 34.0515 15.8851 35.0462 15.7518C36.0956 15.5962 37.0955 15.2024 37.9691 14.6006C38.8428 13.9988 39.5671 13.205 40.0865 12.2799C40.6069 11.3666 40.9422 10.3596 41.0733 9.31663C41.2044 8.27363 41.1287 7.21502 40.8505 6.20129L40.8496 6.20223ZM14.3871 6.26871H26.7176L27.8955 4.30242H13.2102L14.3871 6.26871Z" fill="#66023C"/>
</svg>
