<svg width="19" height="23" viewBox="0 0 19 23" fill="none" xmlns="http://www.w3.org/2000/svg">
<path id="Vector" d="M14.8336 4.08346C14.0258 3.13667 13.5806 1.92077 13.5809 0.662109H9.92938V15.7064C9.90122 16.5205 9.56644 17.2916 8.99554 17.8574C8.42464 18.4231 7.66217 18.7394 6.86869 18.7395C5.19063 18.7395 3.79619 17.3321 3.79619 15.585C3.79619 13.4983 5.75786 11.9332 7.77863 12.5762V8.74233C3.70165 8.18424 0.132812 11.4357 0.132812 15.585C0.132812 19.6252 3.3944 22.5005 6.85688 22.5005C10.5675 22.5005 13.5809 19.4068 13.5809 15.585V7.95372C15.0617 9.04546 16.8394 9.63121 18.6624 9.628V5.87907C18.6624 5.87907 16.4407 5.98826 14.8336 4.08346Z" fill="white"/>
</svg>
