<svg width="20" height="20" viewBox="0 0 20 20" fill="none" xmlns="http://www.w3.org/2000/svg">
<path id="Vector" d="M10.3165 0.647217C15.4944 0.647217 19.6916 4.84444 19.6916 10.0223C19.6916 15.2002 15.4944 19.3974 10.3165 19.3974C8.65972 19.4001 7.03209 18.9616 5.60084 18.1271L0.945169 19.3974L2.21268 14.7398C1.37745 13.3082 0.938651 11.6798 0.941419 10.0223C0.941419 4.84444 5.13865 0.647217 10.3165 0.647217ZM7.12148 5.61601L6.93397 5.62351C6.81259 5.63091 6.69395 5.6628 6.58522 5.71726C6.48352 5.77485 6.39069 5.84685 6.30959 5.93102C6.19709 6.03695 6.13334 6.12883 6.0649 6.21789C5.71814 6.66874 5.53144 7.22226 5.53427 7.79103C5.53615 8.25041 5.65615 8.6976 5.84365 9.11573C6.22709 9.96137 6.85804 10.8567 7.69054 11.6864C7.89117 11.8861 8.08805 12.0867 8.29993 12.2733C9.33436 13.184 10.5671 13.8408 11.9 14.1914L12.4325 14.273C12.6059 14.2823 12.7793 14.2692 12.9537 14.2608C13.2268 14.2467 13.4934 14.1728 13.7347 14.0442C13.8574 13.981 13.9772 13.9122 14.0937 13.838C14.0937 13.838 14.134 13.8117 14.2109 13.7536C14.3375 13.6598 14.4153 13.5933 14.5203 13.4836C14.5981 13.403 14.6656 13.3083 14.7172 13.2005C14.7903 13.0476 14.8634 12.7561 14.8934 12.5133C14.9159 12.3276 14.9094 12.2264 14.9065 12.1636C14.9028 12.0633 14.8194 11.9592 14.7284 11.9151L14.1828 11.6704C14.1828 11.6704 13.3672 11.3151 12.8684 11.0883C12.8162 11.0655 12.7603 11.0524 12.7034 11.0498C12.6393 11.0432 12.5744 11.0504 12.5133 11.071C12.4522 11.0915 12.3962 11.1249 12.349 11.1689C12.3443 11.167 12.2815 11.2204 11.6037 12.0417C11.5648 12.094 11.5112 12.1335 11.4498 12.1552C11.3883 12.1769 11.3218 12.1798 11.2587 12.1636C11.1976 12.1472 11.1378 12.1265 11.0796 12.1017C10.9634 12.0529 10.9231 12.0342 10.8434 12.0004C10.3053 11.7656 9.80715 11.4484 9.36681 11.0601C9.24868 10.957 9.139 10.8445 9.02649 10.7357C8.65767 10.3825 8.33623 9.98293 8.07024 9.54699L8.01492 9.45792C7.97519 9.39808 7.94307 9.33352 7.9193 9.26573C7.88367 9.12792 7.97648 9.01729 7.97648 9.01729C7.97648 9.01729 8.2043 8.76792 8.31024 8.63292C8.41336 8.50166 8.50055 8.37416 8.5568 8.28323C8.66743 8.1051 8.70212 7.92228 8.64399 7.78072C8.38149 7.13946 8.10961 6.50102 7.83023 5.86727C7.77492 5.74164 7.61086 5.65164 7.46179 5.63383C7.41117 5.6282 7.36054 5.62258 7.30992 5.61883C7.18401 5.61257 7.05785 5.61382 6.9321 5.62258L7.12054 5.61508L7.12148 5.61601Z" fill="white"/>
</svg>
