<svg width="23" height="17" viewBox="0 0 23 17" fill="none" xmlns="http://www.w3.org/2000/svg">
<path id="Vector" d="M9.00008 12.3153L14.8389 8.91195L9.00008 5.50856V12.3153ZM22.0052 3.43249C22.1515 3.96569 22.2527 4.6804 22.3202 5.58797C22.399 6.49554 22.4327 7.27832 22.4327 7.959L22.5002 8.91195C22.5002 11.3964 22.3202 13.2229 22.0052 14.3914C21.7239 15.4124 21.0714 16.0704 20.0589 16.354C19.5302 16.5015 18.5627 16.6036 17.0777 16.6717C15.6151 16.7511 14.2764 16.7851 13.0389 16.7851L11.2501 16.8532C6.53631 16.8532 3.60003 16.6717 2.44127 16.354C1.42876 16.0704 0.776257 15.4124 0.495005 14.3914C0.348753 13.8582 0.247502 13.1435 0.180002 12.2359C0.101251 11.3284 0.0675006 10.5456 0.0675006 9.8649L0 8.91195C0 6.42748 0.180002 4.60099 0.495005 3.43249C0.776257 2.41147 1.42876 1.75348 2.44127 1.46987C2.97003 1.32239 3.93754 1.22029 5.42255 1.15222C6.88506 1.0728 8.22382 1.03877 9.46134 1.03877L11.2501 0.970703C15.9639 0.970703 18.9002 1.15222 20.0589 1.46987C21.0714 1.75348 21.7239 2.41147 22.0052 3.43249Z" fill="white"/>
</svg>
